<svg width="32" height="32" viewBox="0 0 32 32" fill="none" xmlns="http://www.w3.org/2000/svg">
<path fill-rule="evenodd" clip-rule="evenodd" d="M16.5 11.0247V9.5H15.5V11.0247C13.1378 11.2592 11.2592 13.1378 11.0247 15.5H9.5V16.5H11.0247C11.2592 18.8622 13.1378 20.7408 15.5 20.9753V22.5H16.5V20.9753C18.8622 20.7408 20.7408 18.8622 20.9753 16.5H22.5V15.5H20.9753C20.7408 13.1378 18.8622 11.2592 16.5 11.0247ZM15.5 12.0309V14.5H16.5V12.0309C18.3094 12.2566 19.7434 13.6906 19.9691 15.5H17.5V16.5H19.9691C19.7434 18.3094 18.3094 19.7434 16.5 19.9691V17.5H15.5V19.9691C13.6906 19.7434 12.2566 18.3094 12.0309 16.5H14.5V15.5H12.0309C12.2566 13.6906 13.6906 12.2566 15.5 12.0309Z" fill="black" fill-opacity="0.8"/>
</svg>
